<svg xmlns="http://www.w3.org/2000/svg" viewBox="0 0 3460 900">
  <g id="graphics__dot" data-name="graphics_ dot">
    <g>
      <g>
        <path d="M2651.1,826.5a10.4,10.4,0,0,1-2.9-7.4,9.9,9.9,0,0,1,10.2-10.2,9.7,9.7,0,0,1,7.1,2.9,10,10,0,0,1,2.9,7.3,10.4,10.4,0,0,1-2.9,7.4,9.4,9.4,0,0,1-7.1,3A9.7,9.7,0,0,1,2651.1,826.5Z" fill="#f5a091"/>
        <path d="M2789.6,697.1a58.8,58.8,0,0,1,25.4,24.2c5.9,10.5,8.8,23.1,8.8,37.6s-2.9,26.8-8.8,37.3a57.8,57.8,0,0,1-25.4,24c-11.1,5.5-24.3,8.3-39.8,8.3h-41.4V688.7h41.4C2765.3,688.7,2778.5,691.5,2789.6,697.1Zm4.7,104.5c10.2-10.2,15.3-24.4,15.3-42.7s-5.1-32.8-15.3-43.1-25-15.5-44.5-15.5h-27.4V816.9h27.4C2769.3,816.9,2784.1,811.8,2794.3,801.6Z" fill="#f5a091"/>
        <path d="M2879.6,700.1v52.2h53v11.6h-53v53h59v11.6h-73v-140h73v11.6Z" fill="#f5a091"/>
        <path d="M3000.3,825.1a40,40,0,0,1-16.5-13.4,35.3,35.3,0,0,1-6.4-19.2h14.8a28.4,28.4,0,0,0,9,17.9c5.3,5.1,13.1,7.7,23.4,7.7s17-2.4,22.5-7.3a23.7,23.7,0,0,0,8.3-18.5c0-6-1.5-10.8-4.6-14.5a28.3,28.3,0,0,0-11.4-8.2,167.1,167.1,0,0,0-18.8-5.9,162.9,162.9,0,0,1-22.2-7.4,35,35,0,0,1-14-11.2c-3.9-5.1-5.8-11.9-5.8-20.6a34.6,34.6,0,0,1,5.6-19.3,37.1,37.1,0,0,1,15.8-13.3,54.4,54.4,0,0,1,23.4-4.8c12.9,0,23.4,3.2,31.3,9.5a35.8,35.8,0,0,1,13.7,24.5h-15.2c-.9-5.7-4.1-10.8-9.4-15.3s-12.5-6.7-21.6-6.7-15.4,2.2-21,6.7-8.4,10.6-8.4,18.3c0,5.9,1.5,10.6,4.6,14.2a29.9,29.9,0,0,0,11.5,8.2,155,155,0,0,0,18.7,6,157.9,157.9,0,0,1,22,7.5,36.1,36.1,0,0,1,14.2,11.3c3.9,5.1,5.8,11.9,5.8,20.4a35.9,35.9,0,0,1-5.2,18.6,37.9,37.9,0,0,1-15.4,14.2c-6.8,3.6-14.9,5.4-24.4,5.4S3007.3,828.3,3000.3,825.1Z" fill="#f5a091"/>
        <path d="M3126.6,688.7V828.5h-14V688.7Z" fill="#f5a091"/>
        <path d="M3284.4,729.5a48,48,0,0,0-18.3-21.7c-8.2-5.3-17.8-7.9-28.9-7.9a54.8,54.8,0,0,0-28,7.2,51,51,0,0,0-19.6,20.5q-7.2,13.4-7.2,30.9c0,11.7,2.4,22.1,7.2,31a51.3,51.3,0,0,0,19.6,20.6,58,58,0,0,0,54.3.9,48.5,48.5,0,0,0,18.8-18q7-11.7,8.1-27.3h-58.8V754.3h73.6v10.2a70.9,70.9,0,0,1-10,33.3,65.4,65.4,0,0,1-24.1,23.5,67.8,67.8,0,0,1-33.9,8.6,68.9,68.9,0,0,1-35.2-9.1,66.1,66.1,0,0,1-24.9-25.4c-6.1-10.9-9.1-23.2-9.1-36.9s3-26,9.1-36.9a66.1,66.1,0,0,1,24.9-25.4,68.9,68.9,0,0,1,35.2-9.1c14.9,0,28,3.7,39.2,11.2s19.3,17.9,24.4,31.2Z" fill="#f5a091"/>
        <path d="M3452.2,828.5h-14l-77.4-117.6V828.5h-14V688.7h14l77.4,117.4V688.7h14Z" fill="#f5a091"/>
      </g>
      <g>
        <path d="M329.7,389.6V529.4h-14V464H239.9v65.4h-14V389.6h14v62.8h75.8V389.6Z" fill="#41aabe"/>
        <path d="M452.1,529.4,417.5,471H391.7v58.4h-14V389.6h42c15.6,0,27.4,3.7,35.5,11.2s12.1,17.2,12.1,29.4c0,10.1-2.9,18.7-8.7,25.9s-14.4,11.7-25.7,13.9l36,59.4Zm-60.4-69.8h28.2c10.9,0,19.1-2.7,24.7-8s8.3-12.5,8.3-21.4-2.7-16.3-8-21.3-13.8-7.5-25.2-7.5h-28Z" fill="#41aabe"/>
        <path d="M525.1,389.6V529.4h-14V389.6Z" fill="#41aabe"/>
        <path d="M591,526a40,40,0,0,1-16.5-13.4,35,35,0,0,1-6.4-19.2h14.8c.6,6.8,3.6,12.7,9,17.9S605,519,615.3,519s16.9-2.5,22.5-7.3a23.8,23.8,0,0,0,8.3-18.5c0-6-1.6-10.9-4.6-14.5a28.3,28.3,0,0,0-11.4-8.2,174.1,174.1,0,0,0-18.8-5.9,167.4,167.4,0,0,1-22.2-7.4,35.2,35.2,0,0,1-14-11.2c-3.9-5.1-5.8-12-5.8-20.6a33.6,33.6,0,0,1,5.6-19.3,37.1,37.1,0,0,1,15.8-13.3,54.4,54.4,0,0,1,23.4-4.8c12.9,0,23.3,3.1,31.3,9.5A35.8,35.8,0,0,1,659.1,422H643.9c-1-5.8-4.1-10.9-9.4-15.3s-12.6-6.7-21.6-6.7-15.4,2.2-21,6.7-8.4,10.5-8.4,18.3c0,5.8,1.5,10.6,4.6,14.2a29.2,29.2,0,0,0,11.5,8.2c4.6,1.8,10.8,3.8,18.7,6a162.6,162.6,0,0,1,22,7.5,35.2,35.2,0,0,1,14.2,11.3c3.8,5,5.8,11.8,5.8,20.4a36.8,36.8,0,0,1-5.2,18.6,38.6,38.6,0,0,1-15.4,14.2c-6.8,3.6-15,5.4-24.4,5.4S598,529.2,591,526Z" fill="#41aabe"/>
        <path d="M785.1,389.6v11.6H746.3V529.4h-14V401.2h-39V389.6Z" fill="#41aabe"/>
        <path d="M850.9,521.7A65.4,65.4,0,0,1,826,496.3c-6.1-10.9-9.1-23.2-9.1-36.9s3-26.1,9.1-36.9a64.1,64.1,0,0,1,24.9-25.4,68.7,68.7,0,0,1,35.2-9.1,69.7,69.7,0,0,1,35.4,9.1,64.5,64.5,0,0,1,24.8,25.4q9,16.2,9,36.9t-9,36.9a65.8,65.8,0,0,1-24.8,25.4,70.7,70.7,0,0,1-35.4,9.1A69.7,69.7,0,0,1,850.9,521.7Zm63.2-10.3a51.6,51.6,0,0,0,19.6-20.7c4.8-9,7.2-19.5,7.2-31.3s-2.4-22.3-7.2-31.2a51.3,51.3,0,0,0-19.6-20.6,58,58,0,0,0-56,0,50.6,50.6,0,0,0-19.6,20.6q-7.2,13.4-7.2,31.2c0,11.8,2.4,22.3,7.2,31.3a50.9,50.9,0,0,0,19.6,20.7,58,58,0,0,0,56,0Z" fill="#41aabe"/>
        <path d="M1072.5,389.6v11.6h-61.6v52.2h52V465h-52v64.4h-14V389.6Z" fill="#41aabe"/>
        <path d="M1187.1,389.6v11.6h-61.6v52.2h52V465h-52v64.4h-14V389.6Z" fill="#41aabe"/>
        <path d="M1240.1,401v52.2h53v11.6h-53v53h59v11.6h-73v-140h73V401Z" fill="#41aabe"/>
        <path d="M1417.1,529.4,1382.5,471h-25.8v58.4h-14V389.6h42c15.6,0,27.4,3.7,35.5,11.2s12.1,17.2,12.1,29.4c0,10.1-2.9,18.7-8.7,25.9s-14.4,11.7-25.7,13.9l36,59.4Zm-60.4-69.8h28.2c10.9,0,19.1-2.7,24.7-8s8.3-12.5,8.3-21.4-2.7-16.3-8-21.3-13.8-7.5-25.2-7.5h-28Z" fill="#41aabe"/>
      </g>
      <g>
        <path d="M1983.3,792.8h-68.2L1902,827h-15.9l54.7-141.9h17L2012.3,827h-15.9Zm-4.5-11.9-29.6-77.7-29.6,77.7Z" fill="#41aabe"/>
        <path d="M2166.6,827h-15l-83.1-120.9V827h-15V683.2h15l83.1,120.7V683.2h15Z" fill="#41aabe"/>
        <path d="M2237.4,823.5a42.2,42.2,0,0,1-17.8-13.8,36,36,0,0,1-6.8-19.7h15.9c.7,7,3.9,13.1,9.6,18.4s14.1,7.9,25.1,7.9,18.2-2.5,24.2-7.5a24,24,0,0,0,8.9-19c0-6.2-1.7-11.2-5-15a30.3,30.3,0,0,0-12.2-8.4c-4.9-1.8-11.6-3.9-20.2-6.1a178.3,178.3,0,0,1-23.8-7.6,36.5,36.5,0,0,1-15-11.5c-4.2-5.2-6.2-12.2-6.2-21.2a34,34,0,0,1,6-19.8,40,40,0,0,1,16.9-13.7c7.3-3.3,15.7-4.9,25.1-4.9,13.9,0,25.1,3.2,33.6,9.7s13.4,15,14.7,25.2h-16.3c-1-5.9-4.3-11.1-10.1-15.7s-13.4-6.9-23.1-6.9-16.6,2.3-22.6,6.9-9,10.9-9,18.8c0,6.1,1.6,10.9,4.9,14.6a32.3,32.3,0,0,0,12.4,8.5,195.6,195.6,0,0,0,20,6.1,195.4,195.4,0,0,1,23.7,7.7,39.4,39.4,0,0,1,15.2,11.7c4.1,5.2,6.2,12.2,6.2,20.9a35.4,35.4,0,0,1-5.6,19.2,40.1,40.1,0,0,1-16.5,14.6c-7.3,3.7-16,5.5-26.2,5.5S2244.9,826.8,2237.4,823.5Z" fill="#41aabe"/>
        <path d="M2372.9,694.9v53.7h56.9v12h-56.9v54.5h63.3V827h-78.3V683h78.3v11.9Z" fill="#41aabe"/>
        <path d="M2596.1,827h-15L2498,706.1V827h-15V683.2h15l83.1,120.7V683.2h15Z" fill="#41aabe"/>
      </g>
      <path d="M305,610C136.6,610,0,473.4,0,305S136.6,0,305,0V20C147.6,20,20,147.6,20,305S147.6,590,305,590H2600v20Z" fill="#5aaabe"/>
      <rect x="1820" width="20" height="900" fill="#5aaabe"/>
      <rect x="1690" width="20" height="900" fill="#5aaabe"/>
      <circle cx="1550" cy="600" r="50" fill="#f5a091"/>
    </g>
  </g>
</svg>
