<svg xmlns="http://www.w3.org/2000/svg" viewBox="0 0 1500 900">
  <g id="grapjics__ANSEN" data-name="grapjics_ ANSEN">
    <g>
      <path d="M883.9,794.8H815.2l-13.1,34.4h-16l55-142.7h17.1L913,829.2H897Zm-4.6-12-29.7-78.1-29.8,78.1Z" fill="#41aabe"/>
      <path d="M1068.2,829.2h-15.1L969.5,707.6V829.2H954.4V684.6h15.1L1053.1,806V684.6h15.1Z" fill="#41aabe"/>
      <path d="M1139.3,825.7a43.2,43.2,0,0,1-17.8-13.9,35.4,35.4,0,0,1-6.9-19.9h15.9c.8,7.1,4,13.2,9.7,18.6s14.2,7.9,25.3,7.9,18.3-2.5,24.3-7.5a24.2,24.2,0,0,0,8.9-19.2c0-6.2-1.6-11.2-4.9-15a30.4,30.4,0,0,0-12.3-8.4,189.6,189.6,0,0,0-20.3-6.1,175.9,175.9,0,0,1-24-7.7,37.7,37.7,0,0,1-15.1-11.6c-4.2-5.2-6.2-12.3-6.2-21.3a34.4,34.4,0,0,1,6-19.9,39.4,39.4,0,0,1,17.1-13.8c7.3-3.3,15.7-4.9,25.2-4.9,14,0,25.2,3.2,33.8,9.8a36.7,36.7,0,0,1,14.8,25.3h-16.4c-1-5.9-4.4-11.2-10.2-15.8s-13.5-6.9-23.3-6.9-16.6,2.3-22.7,6.9-9,10.9-9,18.9c0,6.1,1.6,11,4.9,14.7a32.3,32.3,0,0,0,12.5,8.5,187.6,187.6,0,0,0,20.1,6.2,197.8,197.8,0,0,1,23.8,7.7,39.7,39.7,0,0,1,15.3,11.7c4.2,5.3,6.3,12.3,6.3,21.1a35.8,35.8,0,0,1-5.7,19.3c-3.7,6-9.2,10.9-16.6,14.6s-16.1,5.6-26.3,5.6S1146.8,829,1139.3,825.7Z" fill="#41aabe"/>
      <path d="M1275.6,696.4v54h57.1v12h-57.1v54.8h63.6v12h-78.7V684.4h78.7v12Z" fill="#41aabe"/>
      <path d="M1500,829.2h-15.1l-83.5-121.6V829.2h-15.1V684.6h15.1L1484.9,806V684.6H1500Z" fill="#41aabe"/>
    </g>
  </g>
  <g id="graphics__ch" data-name="graphics_ ch">
    <path d="M305,610C136.6,610,0,473.4,0,305S136.6,0,305,0V20C147.6,20,20,147.6,20,305S147.6,590,305,590H1500v20Z" fill="#5aaabe"/>
    <rect x="720" width="20" height="900" fill="#5aaabe"/>
    <rect x="590" width="20" height="900" fill="#5aaabe"/>
  </g>
  <g id="graphics__dot" data-name="graphics_ dot">
    <circle cx="450" cy="600" r="50" fill="#f5a091"/>
  </g>
</svg>
