<svg xmlns="http://www.w3.org/2000/svg" viewBox="0 0 900 900">
  <g id="graphics__ch" data-name="graphics_ ch">
    <path d="M316.7,663.3c-117.9,0-213.4-95.5-213.4-213.3s95.5-213.3,213.4-213.3v26.6C213.6,263.3,130,346.9,130,450s83.6,186.7,186.7,186.7H570V68.3A399.9,399.9,0,0,0,450,50C229.1,50,50,229.1,50,450S229.1,850,450,850a399.9,399.9,0,0,0,120-18.3V663.3Z" fill="#5aaabe"/>
    <path d="M703.3,636.7V140.4A402.7,402.7,0,0,0,596.7,77.7v559Z" fill="#5aaabe"/>
    <path d="M596.7,663.3v159a402.7,402.7,0,0,0,106.6-62.7V663.3Z" fill="#5aaabe"/>
    <path d="M803.9,636.7A400.5,400.5,0,0,0,730,164.3V636.7Z" fill="#5aaabe"/>
    <path d="M730,735.7a403.6,403.6,0,0,0,58.4-72.4H730Z" fill="#5aaabe"/>
  </g>
  <g id="graphics__dot" data-name="graphics_ dot">
    <circle cx="445.8" cy="650.7" r="46.6" fill="#f5a091"/>
  </g>
</svg>
